<?xml version="1.0" encoding="utf-8"?>
<!-- Generator: Adobe Illustrator 26.0.0, SVG Export Plug-In . SVG Version: 6.00 Build 0)  -->
<svg version="1.1" id="Layer_1" xmlns="http://www.w3.org/2000/svg" xmlns:xlink="http://www.w3.org/1999/xlink" x="0px" y="0px"
	 viewBox="0 0 270.7 232.7" style="enable-background:new 0 0 270.7 232.7;" xml:space="preserve">
<style type="text/css">
	.st0{fill:none;stroke:#000000;stroke-width:5;stroke-linecap:round;stroke-linejoin:round;}
	.st1{opacity:0.7;stroke:#000000;stroke-width:0.75;stroke-linecap:round;stroke-linejoin:round;enable-background:new    ;}
	.st2{stroke:#000000;stroke-width:3;stroke-linecap:round;stroke-linejoin:round;}
	.st3{fill:none;stroke:#000000;stroke-width:4;stroke-linecap:round;stroke-linejoin:round;}
	.st4{fill:none;stroke:#000000;stroke-width:2;stroke-linecap:round;stroke-linejoin:round;}
</style>
<path class="st0" d="M222.5,139.9l22-9.6c0.5-0.2,0.9-0.4,1.2-0.8c0.3-0.7,0.2-1.6-0.2-2.3c-5.2-12-9.2-24.6-13.1-37.1l-7.3-23.2
	L206.4,7.2l-27.1,5.4c-6.6,1.2-13.1,2.8-19.5,4.8c-9.9,3.4-19,8.9-28.4,13.4c-20.9,10.2-43.5,16.3-66.6,18c-4.2,0.3-8.5,0.5-12.7,1
	c-11.8,1.4-23.1,5.3-34.2,9.6C11.6,61.9,8.3,66.9,5.6,73c13.9,31.8,25.1,64.7,36.2,97.6c3.2,9.6,6.5,19.4,6.1,29.5
	c11.6,2.4,23.6,1.1,34.4-3.7c12.2-5.5,22.2-15.3,34.9-19.5c5.2-1.7,10.7-2.5,16.1-3.6c8.9-2,17.5-5.3,25.5-9.8"/>
<path class="st1" d="M217.8,134.9c-2.2-1.1-4.6-2-6.4-3.7c-0.8-0.9-1.6-1.7-2.5-2.5c-1.4-0.8-2.9-1.3-4.5-1.4
	c-9.8-1.1-19.8,1.5-28.7,5.7c-1.5,0.6-2.8,1.5-4,2.5c-1.1,1.1-1.9,2.5-2.9,3.7c-0.8,0.9-1.7,1.7-2.5,2.5c-4.6,4.5-7.4,10.6-7.8,17
	c-0.1,1.6,0,3.3,0.3,4.9c0.6,2,1.4,3.9,2.5,5.6l5.4,9.6c1.7,3.1,3.5,6.2,6.4,8.3c3.8,2.8,8.7,3.3,13.4,3.7l9.1,0.8
	c3,0.2,6.1,0.5,9.1-0.3c3.2-0.9,6-2.9,9.2-3.8c1.1-0.2,2.2-0.5,3.2-1c1.4-0.9,2.5-2.1,3.2-3.6c4-6.8,6.7-14.4,7-22.2
	c0.1-2.3,0-4.7-0.3-7C226.3,146.7,224.5,138.4,217.8,134.9z"/>
<path class="st0" d="M216.8,143.3c-0.2-1.2-0.6-2.5-1.7-2.9c-0.8-0.1-1.6-0.1-2.4,0c-2.9-0.1-3.6-4.4-6.2-5.7
	c-1.8-0.9-4.1-0.1-6.1-0.4c-1.6-0.3-3.1-1.3-4.7-1c-0.8,0.2-1.6,0.5-2.3,1c-2.9,1.6-6.2,2-9.4,1.4c1,1.4-0.4,3.4-2,4.1
	s-3.5,0.7-5,1.5s-2.6,2.5-4.3,2.9c-0.8,0-1.6,0.2-2.3,0.3c-1.4,0.6-1.8,2.4-1.7,4s0.2,3.3-0.8,4.4c-0.6,0.7-1.6,1.1-1.8,1.9
	c-0.5,1.8,2.6,2.8,2.7,4.7c0.1,1.3-1.4,2.4-1.4,3.7s1.4,2.4,1.9,3.7c0.8,2-0.8,4.9,0.9,6.3c0.5,0.3,1.1,0.6,1.7,0.7
	c1.1,0.4,2.2,1.1,3,1.9c0.7,1,1.6,1.8,2.6,2.5c1.6,0.8,3.6,0.1,5.4,0.6c2,0.5,3.4,2.5,5.5,2.7c0.6,0,1.2,0.1,1.9,0.2
	c1.2,0.5,1.7,1.9,2.9,2.6c1.7,1,3.8-0.2,5.7,0c0.8,0.2,1.6,0.4,2.4,0.7c3.8,1.1,7.5-1.4,10.5-4c4-3.4,8-7.8,8-13
	c-0.1-0.6,0-1.3,0.2-1.9c0.4-0.8,1.2-1.2,1.5-2c0.8-1.7-1-3.6-0.6-5.4c0.3-1.4,1.9-2.3,1.9-3.7c0-1-0.9-1.8-1.5-2.6
	c-1.4-1.7-2.2-3.9-2.2-6.1l-0.6,1.1"/>
<path class="st2" d="M187.5,146.4c1,1.1,2.1,2.8,3.2,3.8c5.8,5.2,12.2,9.8,19,13.7c-9.8-4-20.6-5-30.9-2.7
	c8.6-2.7,17.7-5.8,23.4-12.7c-2.3,2.9-3.5,7.5-4.4,11c-0.5,2.1-2.4,7.2-3,9.9c-0.8,3.4-3.5-6.5-3.9-8.4
	C189.9,156.4,188.8,150.7,187.5,146.4z"/>
<path class="st3" d="M110.1,51.4c-2.2,0.5-4.2,1.3-6.1,2.5c-0.8,0.4-1.5,1-2.1,1.6c-0.5,0.7-0.9,1.4-1.1,2.2
	c-1.3,4.4,0.8,9.2,4.4,12.1s8.2,4.1,12.9,4.4c0.9,0.1,1.8,0.1,2.7-0.1c2.3-0.6,3.7-3,4.6-5.2c1-2.2,1.4-4.6,1.3-7
	c-0.4-3.3-2.1-7-5.2-8.4C117.9,52.1,114.1,50.7,110.1,51.4z"/>
<path class="st4" d="M118.3,68.3c-0.8,0.3-1.8,0.4-2.7,0.3c-3.7-0.5-6.8-3.3-7.7-6.9c-0.1-0.5-0.2-1-0.1-1.5c0.3-0.9,1-1.5,1.8-1.8
	c0.9-0.3,1.8-0.4,2.7-0.4l2.7-0.1c0.5,0,1,0,1.5,0.1c1,0.5,1.7,1.4,1.9,2.4C119.4,62.7,121.4,67,118.3,68.3z"/>
<path class="st4" d="M114.5,62.5l-0.4,0.7c-0.9-0.8,0.1-2.6-0.9-3.2c0.1,2,0,4-0.2,6c0.1-0.8,0.4-1.6,0.7-2.3c1.1-0.1,2.2-0.1,3.4,0
	"/>
<path class="st0" d="M44.9,105.4c7.8-6.2,17.8-8.8,27.6-10s19.8-1.3,29.6-3c18.9-3.4,36.2-13,54.9-17.4c3.9-0.9,7.9-1.6,11.5-3.3
	c4.3-2,8-5.2,12.4-6.9c9.1-3.6,20.3-0.1,28.7-5.2"/>
<path class="st0" d="M54,127.8c4.3-5.4,10.3-9.2,17.1-10.6c5.1-1,10.4-0.7,15.6-0.7c9.6-0.1,19.1-1.6,28.2-4.5
	c8.5-2.7,16.6-6.6,25.2-8.8c13.6-3.5,28.6-2.9,40.8-9.9c2.7-1.5,5.2-3.4,7.9-5c6.5-3.9,13.8-6.1,21-8.2"/>
<path class="st0" d="M60.8,149.3c1.7-2.5,3.4-5,5.9-6.6c2.5-1.4,5.3-2.3,8.1-2.5c9.5-1.2,19.4,0.2,28.6-2.4
	c11-3.1,20-11.6,31.2-13.9c3.9-0.8,7.9-0.8,11.8-1.2c7.7-0.8,15.1-3.1,22.5-5.4l21.7-6.7c8.6-2.6,17.2-5.3,25.6-8.5"/>
<path class="st0" d="M62.9,178.7c1.6-8,7.6-14.4,15.4-16.5c1.1-0.3,2.3-0.4,3.1,0.3c0.5,0.6,0.8,1.3,0.9,2c0.5,2,0.5,4.1,0,6.1
	c-0.6,2-2.5,3.7-4.6,3.6c-0.1-1.7,0.7-3.3,2.1-4.2c1.4-0.8,3-1.4,4.6-1.6c3.5-0.6,7.1-1.1,10.7-1.3c0.4,1-1.1,2-2,1.4
	c-0.9-0.7-1.1-1.9-0.4-2.9c0.6-0.9,1.5-1.5,2.5-1.9c2.9-1.3,6.1-1.8,9.3-1.7c-0.7,2-2.8,3-4.8,2.3c0,0-0.1,0-0.1,0
	c2.2-2.4,5.4-3.7,8.6-3.4c-0.2,0.8-0.7,1.4-1.4,1.7c2.4-1.8,5.7-1.7,8.7-1.8s6.5-1,7.8-3.7"/>
<path class="st0" d="M134.9,154.2c-0.1,0.5-0.4,0.9-0.9,1c-0.3-0.2-0.4-0.6-0.3-0.9c0,0,0,0,0,0c0.2-0.3,0.5-0.5,0.8-0.7l1-0.6
	c0.2-0.2,0.5-0.3,0.8-0.3c0.3,0,0.6,0.3,0.5,0.6c-0.1,0.2-0.2,0.3-0.3,0.4c-0.7,0.5-1.4,0.9-2.2,1.2"/>
<path class="st0" d="M174.1,186.9c-0.4,9.9-1.4,19.8-2.3,29.6c-0.3,3.5-0.7,7-2.5,10l12.6-9.2c0.4-0.3,0.9-0.5,1.4-0.5
	c0.4,0.1,0.8,0.4,1.1,0.8l9.1,10.8c0.9-4.3,1.4-8.6,1.3-13c-0.2-4-1.2-7.8-1.9-11.7c-0.7-4.3-1-8.7-0.7-13"/>
<path class="st0" d="M222.6,178.5c6.8,1.5,13.7,3.2,20.1,6c5.5,2.5,10.8,5.4,15.8,8.7c0.9-1.9-0.5-4-1.7-5.6l-6.8-8.7
	c6.1-0.1,11.8-2.9,15.6-7.6c-4.7,0.7-9.4-0.3-14-1.3l-9.9-2.1c-5-1.1-10-2.2-15-3.7"/>
</svg>
