<?xml version="1.0" encoding="utf-8"?>
<!-- Generator: Adobe Illustrator 26.0.0, SVG Export Plug-In . SVG Version: 6.00 Build 0)  -->
<svg version="1.1" id="Layer_1" xmlns="http://www.w3.org/2000/svg" xmlns:xlink="http://www.w3.org/1999/xlink" x="0px" y="0px"
	 viewBox="0 0 205.3 240" style="enable-background:new 0 0 205.3 240;" xml:space="preserve">
<style type="text/css">
	.st0{fill:none;stroke:#FFFFFF;stroke-width:5;stroke-linecap:round;stroke-linejoin:round;}
	
		.st1{opacity:0.7;fill:#FFFFFF;stroke:#FFFFFF;stroke-width:3;stroke-linecap:round;stroke-linejoin:round;enable-background:new    ;}
	.st2{opacity:0.7;fill:#FFFFFF;enable-background:new    ;}
</style>
<path class="st0" d="M29.8,103c0.5,3.2,0.7,6.4,1.7,9.5c0.9,2.5,2.1,4.9,3.4,7.2c4.5,8.4,7.7,17.5,9.4,26.9c12.9-4.8,26.3-7.8,40-9
	c6.4-0.6,13-0.7,18.8-3.4c4.6-2.1,8.5-5.6,13.1-7.6c6.9-3,14.7-2.5,22.2-3.5c5.8-1,11.6-2.5,17.2-4.5l40-12.9
	c0.7-0.2,1.3-0.5,1.9-0.9c1.4-1.2,1.3-3.3,1.1-5.1c-4-28.6-9.7-24.2-15-52.4c-1-5.2-11.6-34.2-14.8-38.3c-0.3-3.7-3.3-1.7-8.8-0.3
	c-5.7,1.4-12.6,4.8-15.7,5.2c-28.2,3.3-42.6,17.7-70,24.6c-15.4,3.9-31.4,4.1-46.6,8.6c-5.5,1.6-11.9,3-11.8,9.7
	c0.1,6.9,3.1,14.2,5.6,20.6C24.6,85.9,28.3,94.1,29.8,103z"/>
<path class="st0" d="M66.4,154.6l29.3-4.3c4.2-0.5,8.3-1.3,12.4-2.4c6.3-1.9,12.2-5.1,18.4-7.3c7.5-2.6,15.5-3.6,23.4-5
	c17.2-3.1,34-8.6,49.7-16.3c-0.4,8.8-0.7,17.6-3.4,26c-1.7,5.4-4.3,10.4-5.4,16c-0.8,4.1-0.8,8.4-2.4,12.3
	c-2.8,6.8-10.1,11.6-10.7,18.9c-0.2,2.3,0.3,4.8-0.6,6.9s-3.1,3.3-5.3,4.2c-6.3,2.5-13.4,2.9-19.6,5.6c-3.3,1.4-6.4,3.5-9.7,4.9
	c-5.2,2.3-11,3.1-16.7,3.9c-14.1,1.9-28.2,3.8-42.3,5.1c-12.9,1.2-25.9,1.9-38.2,5.9c-4,1.3-7.9,2.9-12,3.9
	c-8.7,2.1-17.9,1.2-26.8,0.3c6.1-14.7,13.7-28.6,22.6-41.7c2.9-4.2,5.9-8.3,8-13c2.4-5.4,3.3-13.7,8-17.8
	C50.4,156.2,60,155.6,66.4,154.6z"/>
<path class="st1" d="M106.2,186.3c4.4-0.1,8.9,0.1,13.3-0.3c2.8-0.3,5.7-0.8,8.5-1.5c12.1-2.7,24.1-5.8,36-9.3c1-0.2,2-0.7,2.8-1.3
	c0.7-0.7,1.2-1.6,1.5-2.6l11-27.2c-8.6,1.8-17,4.7-25.5,7.3c-32.5,10-66.2,15.8-99.7,21.5c-1.4,3.7-3.7,6.8-6,10l-7.2,9.5
	c-2.2,2.9-4.2,5,0.5,5.6c6.8,0.9,15.5-2,22-3.5C77.5,191.2,91.6,186.8,106.2,186.3z"/>
<path class="st1" d="M67.1,216.2c6.6-0.9,12.9-1.8,20.8-3.2c4.3-0.8,17.3-0.4,22.2-2.5c0-4.6,7-12.2,6.2-16
	c-8.4,1-15.7,3.6-23.3,3.6c-4,0-17.8,1.5-18.5,2.1C73.4,201.2,67.1,212.5,67.1,216.2z"/>
<path class="st0" d="M60.3,141.7c0.4,0,0,0.4,0.4,0.4c1,4,1.2,8.2,0.8,12.4"/>
<path class="st0" d="M179.2,111c0.5,0,0,0.4,0.4,0.4c1,4,1.5,5.4,1,9.5"/>
<path class="st2" d="M49.9,112.9c-4.3-16.3-10.3-32.2-17.8-47.4c-1-2.1-2-4.6-0.7-6.5c1-1.4,2.9-1.7,4.6-1.8
	c4.3-0.2,8.6,0.4,12.9,0.1c9-0.5,17.3-4.8,26.1-6.9c5.4-1.3,10.9-1.9,16.4-3c6.3-1.4,12.4-3.3,18.4-5.6
	c16.2-5.9,32.2-12.4,47.9-19.6c8.8,12.4,12.4,27.7,15.7,42.6l7.5,33.2c-2.7,2.9-7.3,1.8-11.2,1.6c-4.6-0.2-9.1,1.1-13.5,2.8
	c-5.4,2-10.5,4.4-15.8,6.6c-3.2,1.4-6.5,2.7-9.8,3.8c-5.4,1.8-10.9,3.1-16.4,4.3l-17.6,4c-11.2,2.6-22.3,5.2-33.5,7.6
	c-3,0.7-6.8,1.8-8.9-1.1C51.4,124.1,51,117.2,49.9,112.9z"/>
<path class="st0" d="M49.9,112.9c-4.3-16.3-10.3-32.2-17.8-47.4c-1-2.1-2-4.6-0.7-6.5c1-1.4,2.9-1.7,4.6-1.8
	c4.3-0.2,8.6,0.4,12.9,0.1c9-0.5,17.3-4.8,26.1-6.9c5.4-1.3,10.9-1.9,16.4-3c6.3-1.4,12.4-3.3,18.4-5.6
	c16.2-5.9,32.2-12.4,47.9-19.6c8.8,12.4,12.4,27.7,15.7,42.6l7.5,33.2c-2.7,2.9-7.3,1.8-11.2,1.6c-4.6-0.2-9.1,1.1-13.5,2.8
	c-5.4,2-10.5,4.4-15.8,6.6c-3.2,1.4-6.5,2.7-9.8,3.8c-5.4,1.8-10.9,3.1-16.4,4.3l-17.6,4c-11.2,2.6-22.3,5.2-33.5,7.6
	c-3,0.7-6.8,1.8-8.9-1.1C51.4,124.1,51,117.2,49.9,112.9z"/>
</svg>
