<?xml version="1.0" encoding="utf-8"?>
<!-- Generator: Adobe Illustrator 26.0.0, SVG Export Plug-In . SVG Version: 6.00 Build 0)  -->
<svg version="1.1" id="Layer_1" xmlns="http://www.w3.org/2000/svg" xmlns:xlink="http://www.w3.org/1999/xlink" x="0px" y="0px"
	 viewBox="0 0 316 190" style="enable-background:new 0 0 316 190;" xml:space="preserve">
<style type="text/css">
	.st0{fill:none;stroke:#FFFFFF;stroke-width:5;stroke-linecap:round;stroke-linejoin:round;}
	
		.st1{opacity:0.7;fill:#FFFFFF;stroke:#FFFFFF;stroke-width:0.75;stroke-linecap:round;stroke-linejoin:round;enable-background:new    ;}
</style>
<path class="st0" d="M69.5,140c13.1-4.9,26.7-8,40.6-9.2c4-0.2,7.9-0.7,11.8-1.4c4.9-1.1,9.5-3.4,14-5.6l59.2-29.3
	c-2-4.6-1.4-10-2.7-14.9c-1.1-3.5-2.7-6.9-4.7-9.9c-9.2-15.5-18.7-30.9-28.5-46.1c-2.5-4-5.2-7.9-8.2-11.6c-1.2-1.5-2.6-2.7-4.3-3.6
	c-1.6-0.6-3.3-1-5-1c-20.9-1.2-41.5,4.8-58.6,16.9c-1.2,0.9-2.5,1.7-3.9,2.2c-1.6,0.4-3.3,0.5-5,0.2c-17.9-1.6-37-2.5-52.6,6.5
	c-1.1,0.5-2,1.3-2.7,2.3c-0.4,0.9-0.6,1.8-0.7,2.7c-0.6,5.6-1.8,12.9,0.4,18.3c2.8,6.7,7.8,13,11.6,19.2L55.6,117
	C56.8,119.1,68.8,140.2,69.5,140z"/>
<path class="st0" d="M19.9,37.7c5.5,7.2,12.2,13.6,17.7,20.8c4.2,5.8,8,11.8,11.4,18L73.6,119c2.4-0.7,4.7-1.4,7.1-2
	c14.6-3.5,31.7-1.1,41.6,10.2c1.2-5.9,5.7-10.5,10.3-14.5c17-14.7,37.2-25.1,59-30.6"/>
<path class="st0" d="M78.6,27.1c6.3,6.4,12.6,12.9,17.6,20.4c2.4,3.6,4.5,7.4,6.5,11.2c5.4,10,10.5,20.2,14.3,30.9s6.2,22,5.8,33.4
	l-0.1-2"/>
<path class="st0" d="M39,48.4c0-2.5,1.1-4.8,3-6.4c2.1-1.9,4.9-2.5,7.6-1.8c2.7,0.8,4.4,3.5,4.2,6.3c-0.1,0.8-0.8,1.7-1.5,1.5
	c-0.6-0.2-0.8-1-0.8-1.6c-0.2-2.5-0.1-5.4,1.7-7.1c2.4-2.4,6.5-1.6,9.8-0.5c1.5,0.4,2.9,1,4.2,2c1.2,1,1.7,2.7,1.1,4.2
	c-1.8,0.8-3.5-1.6-3-3.5s2.3-3,3.9-4c1.3-1,2.9-1.6,4.6-1.8c3.5,0,5.6,3.8,7,7"/>
<path class="st0" d="M54.9,61.1c3.3-0.4,5.9-2.8,9-3.8c3.9-1.2,8.1-0.1,12.1-0.4c1.5-0.2,2.9-0.5,4.3-0.8l8.3-2"/>
<path class="st0" d="M66.1,79.2c5.1-1,10-2.4,14.9-4.2c1.2-0.5,2.4-1,3.6-1.4c2.4-0.6,4.9-0.3,7.2-1.1c2.1-0.7,4.2-2.2,6.3-1.4"/>
<path class="st0" d="M78.6,98.3c2.9-1.4,5.8-2.6,8.9-3.5c3.1-0.9,6.3-1,9.5-0.2c1,0.4,2,0.6,3.1,0.7c1.1,0.1,2.1-0.4,2.7-1.2"/>
<path class="st0" d="M73,119.5l-1.2,7.3l-0.3,1.6l-1.3,7.8c-0.1,1-0.3,1.9-0.6,2.9"/>
<path class="st0" d="M98.5,32.1c6.4-5.6,14.4-8.9,22.8-9.4c3-0.2,6.1,0,9.1-0.4c3-0.2,5.9-1.4,8.2-3.5"/>
<path class="st0" d="M111,44.3l2.9-2.5c2.7-2.9,6.5-4.5,10.5-4.3l8.2-0.4c1.6-0.1,3.3-0.1,4.9,0.1c1.6,0.4,3.2,0.7,4.8,0.8
	c1.6,0,3.4-0.9,3.8-2.4"/>
<path class="st0" d="M119.6,61.2c10.4-5.4,21.5-9.2,33-11.3"/>
<path class="st0" d="M123.9,76.8c3.5-3.1,8.3-4.3,12.8-5.5c9-2.4,18-5.4,25.6-10.9c2.6,5,6,9.5,9.9,13.5c-5.4,2.2-10.7,4.9-15.6,8
	c-2.8,1.8-5.4,3.6-8.2,5.4c-2.9,1.8-6,3.5-9.1,5c-2,0.9-5.3,3.1-7.6,2.1C129.9,93.8,123.1,77.5,123.9,76.8z"/>
<path class="st1" d="M19.2,56.7c-4,0.6-7.9,2-11.4,4.1c-0.9,0.4-1.7,1.2-2,2.1c-0.1,0.9,0.2,1.8,0.6,2.5l46.2,89.1
	c2.4,4.5,5.5,9.6,10.5,10.1c2.6,0.3,5.1-0.8,7.5-1.8c25.4-10.7,51.4-20.1,77.8-28.2c7.6-2.3,15.3-4.6,22.4-8.1
	c11.6-5.7,21.6-14.7,33.7-19.4c4-1.6,8.8-3.1,10.3-7.1c1.5-3.7-0.5-7.9-2.5-11.4l-18.7-33.6c-7.3-13.2-14.7-26.4-24-38.4
	c-2.1-2.7-4.4-5.4-7.6-6.8s-7.4-0.9-9.3,2c13.4,19,24.2,39.1,35.1,59.6c3.4,6.4,6.8,13.3,6,20.5c-0.1,1.3-0.5,2.5-1.2,3.5
	c-0.9,1-2.1,1.8-3.3,2.3l-54,25.1c-5.8,2.7-11.6,5.4-17.7,6.8c-7.1,1.7-14.4,1.7-21.6,2.9c-7.8,1.3-15.3,4-23,5.7
	c-1.8,0.4-3.8,0.7-5.3-0.3c-0.8-0.7-1.5-1.5-2-2.5C50.6,109.3,34.6,82.9,19.2,56.7z"/>
<path class="st0" d="M113,147.1c9-1,18,2.5,24,9.2c1,1.1,2,2.4,3.5,2.8c1,0.2,2.1,0.1,3.1-0.3c23.5-5.7,48.3-3,70,7.8
	c0.6,0.4,1.2,0.5,1.9,0.5c0.7-0.2,1.3-0.6,1.8-1.1l53.2-53.7c7.7-7.8,15.5-15.6,24.2-22.2c3.5-2.6,7.4-5.7,7.6-10
	c0.2-5.2-5.3-10.3-3-15c-33.4-6.7-67.6-8.7-101.6-6.1"/>
<path class="st0" d="M128.1,141.1c6.2-0.9,12,3.4,12.9,9.6c0.2,1.6,0.1,3.3-0.3,4.8c2.6-4.9,8.1-7.5,13.5-9.2
	c19.2-6,40-4.4,58.1,4.3l19.9-20.5c4.3-4.6,8.9-9,13.7-13.1c4.6-3.7,9.5-6.9,14.1-10.7c5.8-4.8,10.9-10.5,15.9-16.1l20.8-23.4"/>
<path class="st0" d="M212.5,152.2c0.2,2.7,0.6,5.5,1.3,8.1c0.4,2.2,0.7,4.5,0.9,6.8"/>
<path class="st0" d="M204.4,69c8-0.8,16.4-1.6,24.1,1c2.2,0.8,4.3,1.8,6.5,2.4c9.5,2.8,20.2-1.6,29.5,1.8"/>
<path class="st0" d="M216.4,83.4c6.7-1,13.6,0.2,19.6,3.4c1.3,0.9,2.7,1.5,4.2,1.8c3,0.3,6.1-1.9,8.7-0.5"/>
<path class="st0" d="M192.4,116.6c3.2-0.6,6.5-0.1,9.3,1.6c1,0.6,2,1.4,3.1,2c2.8,1.5,6,1.6,9.2,1.7"/>
<path class="st0" d="M161.5,133.2c7.1-2.6,14.9,0.4,22.4-0.2c1.8-0.1,3.5-0.5,5.3-0.6c5.6-0.4,11.1,1.3,16.4,3"/>
<path class="st1" d="M117.8,166.6c3.7,2.8,7.1,6,11.4,7.6c6.7,2.5,14.1,0.2,21.2-0.3c8.5-0.7,16.9,1.1,25.3,2.8l40.6,8.4
	c2.4,0.5,4.9,1,7.2,0.3c2-0.7,3.8-1.8,5.3-3.2c20.9-17.1,40.3-35.9,58.1-56.2c5.9-6.7,11.6-13.6,18.7-19c2.4-1.8,5.1-3.9,5-6.9
	c-0.1-1.3-0.6-2.6-1.3-3.7c-1.5-2.8-3.2-5.4-5.2-7.9c-1.1-1.4-2.5-2.9-4.2-2.8c-1,0.2-2,0.6-2.8,1.3c-8.8,6.6-16.6,14.5-24.3,22.3
	l-50.7,51.3c-2.5,2.6-5.4,5.3-9,5.7c-2.7,0.3-5.3-0.8-7.9-1.7c-19.5-7.4-40.6-9.6-61.2-6.5c-1.8,0.3-3.7,0.6-5.4-0.2
	c-1.3-0.8-2.4-1.8-3.2-2.9c-6-6.5-15.5-10.1-23.8-7.3c-6.6,2.3-17.9,6.6-23.8,8.9c1.6,1.2,6-0.2,8,0.2
	C103.7,158.4,111.3,161.7,117.8,166.6L117.8,166.6z"/>
</svg>
