<svg id="Layer_1" data-name="Layer 1" xmlns="http://www.w3.org/2000/svg" viewBox="0 0 339.81 151.42"><defs><style>.cls-1{fill:#fff;}</style></defs><path class="cls-1" d="M132.39,256.91v-6.2a11.22,11.22,0,0,1-2.12,2.7,16.42,16.42,0,0,1-4.49,3.2,14.3,14.3,0,0,1-6.52,1.41,17.49,17.49,0,0,1-9.78-2.72A18.59,18.59,0,0,1,103,248a23.38,23.38,0,0,1,0-20.35,18.82,18.82,0,0,1,6.52-7.34,17.42,17.42,0,0,1,9.78-2.74,16.12,16.12,0,0,1,6.29,1.14,14.69,14.69,0,0,1,4.37,2.7,10.55,10.55,0,0,1,2.33,2.86v-5.59h14.07v38.24Zm-9.59,20.44a44.9,44.9,0,0,1-7.94-.7,27,27,0,0,1-7.34-2.37,16.68,16.68,0,0,1-5.72-4.61l8.28-8.62a18.12,18.12,0,0,0,2.64,2.47,13.21,13.21,0,0,0,3.86,2,17.36,17.36,0,0,0,5.61.79,12.42,12.42,0,0,0,5.36-1.07,8.14,8.14,0,0,0,3.56-3.12,9.22,9.22,0,0,0,1.28-5v-.93h13.93V258a17.62,17.62,0,0,1-3.15,10.66,19.19,19.19,0,0,1-8.45,6.52A31,31,0,0,1,122.8,277.35Zm-8.29-39.54a9.07,9.07,0,0,0,1.21,4.68,8.69,8.69,0,0,0,3.24,3.24,8.8,8.8,0,0,0,4.49,1.17,8.65,8.65,0,0,0,4.52-1.17,8.31,8.31,0,0,0,3.09-3.24,10.1,10.1,0,0,0,0-9.36,8.65,8.65,0,0,0-3.09-3.26,8.56,8.56,0,0,0-4.52-1.18,8.71,8.71,0,0,0-4.49,1.18,9,9,0,0,0-4.45,7.94Z" transform="translate(-72.77 -147.89)"/><path class="cls-1" d="M168.34,256.91H154.19V218.67h14.15v5.92h-.23a9.19,9.19,0,0,1,1.82-2.73,13.39,13.39,0,0,1,4-3,14,14,0,0,1,6.38-1.32,15.24,15.24,0,0,1,8.15,2.37l-5.5,11.5a7.7,7.7,0,0,0-2.3-1.65,9,9,0,0,0-4.13-.86,7.38,7.38,0,0,0-4.68,1.44,8.81,8.81,0,0,0-2.7,3.5,10,10,0,0,0-.86,3.86Z" transform="translate(-72.77 -147.89)"/><path class="cls-1" d="M222,256.91v-6.2a11.49,11.49,0,0,1-2.12,2.7,16.42,16.42,0,0,1-4.49,3.2,14.33,14.33,0,0,1-6.52,1.41,17.49,17.49,0,0,1-9.78-2.72,18.52,18.52,0,0,1-6.52-7.31,23.38,23.38,0,0,1,0-20.35,18.74,18.74,0,0,1,6.52-7.34,17.42,17.42,0,0,1,9.78-2.74,16,16,0,0,1,6.28,1.14,14.88,14.88,0,0,1,4.38,2.7,10.55,10.55,0,0,1,2.33,2.86v-5.59h14.07v38.24Zm-17.88-19.1a9.07,9.07,0,0,0,1.21,4.68,8.59,8.59,0,0,0,3.23,3.24,8.86,8.86,0,0,0,4.5,1.17,8.65,8.65,0,0,0,4.52-1.17,8.31,8.31,0,0,0,3.09-3.24,10.18,10.18,0,0,0,0-9.36,8.65,8.65,0,0,0-3.09-3.26,8.56,8.56,0,0,0-4.52-1.18,8.77,8.77,0,0,0-4.5,1.18,8.94,8.94,0,0,0-3.23,3.26A9.12,9.12,0,0,0,204.11,237.81Z" transform="translate(-72.77 -147.89)"/><path class="cls-1" d="M261.3,258a17,17,0,0,1-9.64-2.72A18.22,18.22,0,0,1,245.3,248a24,24,0,0,1,0-20.35,18.44,18.44,0,0,1,6.36-7.34,16.89,16.89,0,0,1,9.64-2.74,17.44,17.44,0,0,1,6.52,1.14,15.89,15.89,0,0,1,4.61,2.7,6.6,6.6,0,0,1,2.14,2.86V192.83h14.15v64.08h-14v-6.2a11.75,11.75,0,0,1-2.89,3.43,17.15,17.15,0,0,1-4.7,2.79A15.34,15.34,0,0,1,261.3,258Zm4.33-11.12a9,9,0,0,0,4.58-1.17,8.28,8.28,0,0,0,3.19-3.24,9.94,9.94,0,0,0,0-9.36,8.61,8.61,0,0,0-3.19-3.26,8.9,8.9,0,0,0-4.58-1.18,8.49,8.49,0,0,0-4.45,1.18,8.58,8.58,0,0,0-3.12,3.26,10.18,10.18,0,0,0,0,9.36,8.25,8.25,0,0,0,3.12,3.24A8.57,8.57,0,0,0,265.63,246.9Z" transform="translate(-72.77 -147.89)"/><path class="cls-1" d="M316.2,244.66l10.34-26h13.88l-26.27,57.61H300l8.85-19.37-16-38.24H307Z" transform="translate(-72.77 -147.89)"/><path class="cls-1" d="M354.34,258a8.5,8.5,0,0,1-8.43-8.42,8.25,8.25,0,0,1,2.49-6,8.41,8.41,0,0,1,12,0,8.31,8.31,0,0,1,2.47,6,8.47,8.47,0,0,1-8.48,8.42Z" transform="translate(-72.77 -147.89)"/><path class="cls-1" d="M385.6,164.89l-.15.31-.45.87-.71,1.38-.93,1.83-1.14,2.23-1.32,2.57-1.46,2.86L377.86,180l-1.66,3.26-1.73,3.36-1.75,3.43L371,193.5l-1.73,3.37-1.66,3.26L366,203.22l-1.47,2.86-1.32,2.59-1.15,2.24-.95,1.85-.71,1.4a11.35,11.35,0,0,0-.89,1.82,3.75,3.75,0,0,0-.11,1.49c.14,1.73.34,3.47.42,5.2.09,1.35.19,2.69.29,4s.19,2.57.28,3.85c.08,1,.15,2,.22,2.93l.09,1.28s.12,1.32,1.13,1.6a2.81,2.81,0,0,0,1.1-.09,5.52,5.52,0,0,0,.75-.42l1.66-1,4.94-3.07,5.12-3.23c1.08-.68,2.25-1.25,3.26-2a7.2,7.2,0,0,0,1.72-2.61l.58-1.13c.52-1,1-2,1.55-3l2-3.87,2.31-4.52,2.53-5c.88-1.74,1.77-3.47,2.65-5.2l2.67-5.24q1.31-2.53,2.59-5.07l2.4-4.72,2.12-4.15,1.72-3.38,1.24-2.42.63-1.25.07-.13Z" transform="translate(-72.77 -147.89)"/><path class="cls-1" d="M388.42,159.12c.92-1.8,1.76-3.64,2.71-5.43a23.81,23.81,0,0,1,1.51-2.58,7.26,7.26,0,0,1,2.07-1.87,8.59,8.59,0,0,1,4.51-1.35,10,10,0,0,1,4.48,1.38c1.18.59,2.36,1.18,3.53,1.79a11.23,11.23,0,0,1,3.16,2.05,8.05,8.05,0,0,1,2.16,4.74,9.9,9.9,0,0,1-1.18,5.1c-1,2.14-2.05,4.22-3.1,6.32Z" transform="translate(-72.77 -147.89)"/><path class="cls-1" d="M72.77,285.2h3.14v13.86H72.77Z" transform="translate(-72.77 -147.89)"/><path class="cls-1" d="M86.17,290.19a4.51,4.51,0,0,1,1.76.36,3.34,3.34,0,0,1,1.42,1.16,3.59,3.59,0,0,1,.56,2.09v5.26h-3.2v-4.74a1.94,1.94,0,0,0-.45-1.39,1.49,1.49,0,0,0-1.15-.46,1.75,1.75,0,0,0-.89.24,2,2,0,0,0-.67.7,2,2,0,0,0-.26,1v4.63H80.1v-8.62h3.19v1.27a1.88,1.88,0,0,1,.53-.7,3.56,3.56,0,0,1,1-.59A3.83,3.83,0,0,1,86.17,290.19Z" transform="translate(-72.77 -147.89)"/><path class="cls-1" d="M99.59,290.19a4.51,4.51,0,0,1,1.76.36,3.34,3.34,0,0,1,1.42,1.16,3.59,3.59,0,0,1,.56,2.09v5.26h-3.21v-4.74a1.93,1.93,0,0,0-.44-1.39,1.51,1.51,0,0,0-1.15-.46,1.75,1.75,0,0,0-.89.24,1.88,1.88,0,0,0-.67.7,2,2,0,0,0-.26,1v4.63H93.52v-8.62h3.19v1.27a1.88,1.88,0,0,1,.53-.7,3.56,3.56,0,0,1,1-.59A3.83,3.83,0,0,1,99.59,290.19Z" transform="translate(-72.77 -147.89)"/><path class="cls-1" d="M111.46,299.31a5.25,5.25,0,0,1-2.51-.58,4.36,4.36,0,0,1-2.35-4,4.43,4.43,0,0,1,.63-2.36,4.36,4.36,0,0,1,1.72-1.63,5.15,5.15,0,0,1,2.51-.6,5.05,5.05,0,0,1,2.5.6,4.28,4.28,0,0,1,1.69,1.63,4.51,4.51,0,0,1,.61,2.36,4.44,4.44,0,0,1-.61,2.34,4.3,4.3,0,0,1-1.69,1.61A5.16,5.16,0,0,1,111.46,299.31Zm0-2.62a1.81,1.81,0,0,0,1-.24,1.66,1.66,0,0,0,.62-.69,2.14,2.14,0,0,0,.22-1,2.16,2.16,0,0,0-.22-1,1.69,1.69,0,0,0-.62-.7,1.82,1.82,0,0,0-1-.25,1.84,1.84,0,0,0-.95.25,1.71,1.71,0,0,0-.63.7,2.16,2.16,0,0,0-.22,1,2.14,2.14,0,0,0,.22,1,1.68,1.68,0,0,0,.63.69A1.84,1.84,0,0,0,111.46,296.69Z" transform="translate(-72.77 -147.89)"/><path class="cls-1" d="M119,290.44h3.42l2.08,5.72,2.09-5.72H130l-3.61,8.62h-3.74Z" transform="translate(-72.77 -147.89)"/><path class="cls-1" d="M139.88,299.06v-1.4a2.88,2.88,0,0,1-.48.61,3.63,3.63,0,0,1-1,.72,3.12,3.12,0,0,1-1.47.32,4,4,0,0,1-2.21-.61,4.19,4.19,0,0,1-1.47-1.65,5.32,5.32,0,0,1,0-4.59,4.19,4.19,0,0,1,1.47-1.65,3.89,3.89,0,0,1,2.21-.62,3.46,3.46,0,0,1,2.4.86,2.56,2.56,0,0,1,.53.65v-1.26H143v8.62Zm-4-4.31a2.06,2.06,0,0,0,.27,1.06,2,2,0,0,0,.73.73,2,2,0,0,0,1,.26,1.88,1.88,0,0,0,1.72-1,2.35,2.35,0,0,0,0-2.11,1.86,1.86,0,0,0-1.72-1,2,2,0,0,0-1,.26,2,2,0,0,0-.73.74A2.05,2.05,0,0,0,135.85,294.75Z" transform="translate(-72.77 -147.89)"/><path class="cls-1" d="M152.87,290.19a4.51,4.51,0,0,1,1.76.36,3.4,3.4,0,0,1,1.42,1.16,3.59,3.59,0,0,1,.55,2.09v5.26h-3.2v-4.74a2,2,0,0,0-.44-1.39,1.51,1.51,0,0,0-1.15-.46,1.72,1.72,0,0,0-.89.24,2,2,0,0,0-.93,1.72v4.63H146.8v-8.62H150v1.27a1.78,1.78,0,0,1,.53-.7,3.56,3.56,0,0,1,1-.59A3.83,3.83,0,0,1,152.87,290.19Z" transform="translate(-72.77 -147.89)"/><path class="cls-1" d="M164.05,299.31a3.87,3.87,0,0,1-2.18-.61,4.17,4.17,0,0,1-1.43-1.65,5.42,5.42,0,0,1,0-4.59,4.17,4.17,0,0,1,1.43-1.65,3.79,3.79,0,0,1,2.18-.62,4,4,0,0,1,1.47.25,4.08,4.08,0,0,1,1,.61,1.58,1.58,0,0,1,.48.65v-7.09h3.19v14.45h-3.16v-1.4a2.49,2.49,0,0,1-.65.77,3.59,3.59,0,0,1-1.06.63A3.36,3.36,0,0,1,164.05,299.31Zm1-2.51a2.11,2.11,0,0,0,1-.26,2,2,0,0,0,.72-.73,2.27,2.27,0,0,0,0-2.11,2,2,0,0,0-.72-.74,2.11,2.11,0,0,0-1-.26,2,2,0,0,0-1,.26,1.92,1.92,0,0,0-.7.74,2.27,2.27,0,0,0,0,2.11,1.89,1.89,0,0,0,.7.73A2,2,0,0,0,165,296.8Z" transform="translate(-72.77 -147.89)"/><path class="cls-1" d="M178.36,299.31a5.29,5.29,0,0,1-2.52-.58,4.33,4.33,0,0,1-2.34-4,4.52,4.52,0,0,1,.62-2.36,4.42,4.42,0,0,1,1.72-1.63,5.19,5.19,0,0,1,2.52-.6,5.08,5.08,0,0,1,2.5.6,4.34,4.34,0,0,1,1.69,1.63,4.61,4.61,0,0,1,.61,2.36,4.53,4.53,0,0,1-.61,2.34,4.36,4.36,0,0,1-1.69,1.61A5.18,5.18,0,0,1,178.36,299.31Zm0-2.62a1.78,1.78,0,0,0,.94-.24,1.6,1.6,0,0,0,.62-.69,2.14,2.14,0,0,0,.22-1,2.16,2.16,0,0,0-.22-1,1.62,1.62,0,0,0-.62-.7,1.78,1.78,0,0,0-.94-.25,1.84,1.84,0,0,0-1,.25,1.71,1.71,0,0,0-.63.7,2.17,2.17,0,0,0-.23,1,2.14,2.14,0,0,0,.23,1,1.68,1.68,0,0,0,.63.69A1.84,1.84,0,0,0,178.36,296.69Z" transform="translate(-72.77 -147.89)"/><path class="cls-1" d="M197.35,299.06h-3.2V284.61h3.2Z" transform="translate(-72.77 -147.89)"/><path class="cls-1" d="M208,299.06v-1.4a2.33,2.33,0,0,1-.48.61,3.49,3.49,0,0,1-1,.72,3.12,3.12,0,0,1-1.47.32,4,4,0,0,1-2.21-.61,4.19,4.19,0,0,1-1.47-1.65,5.32,5.32,0,0,1,0-4.59,4.19,4.19,0,0,1,1.47-1.65,3.89,3.89,0,0,1,2.21-.62,3.42,3.42,0,0,1,2.4.86,2.36,2.36,0,0,1,.53.65v-1.26h3.17v8.62Zm-4-4.31a2.06,2.06,0,0,0,.27,1.06,2,2,0,0,0,1.74,1,2,2,0,0,0,1-.26,1.89,1.89,0,0,0,.7-.73,2.27,2.27,0,0,0,0-2.11,1.92,1.92,0,0,0-.7-.74,2,2,0,0,0-1-.26,2,2,0,0,0-2,2.05Z" transform="translate(-72.77 -147.89)"/><path class="cls-1" d="M225,295.43a1.52,1.52,0,0,0,.3.82,1.64,1.64,0,0,0,.72.56,2.69,2.69,0,0,0,1.11.2,4.63,4.63,0,0,0,1.1-.12,3.51,3.51,0,0,0,.85-.31,2.19,2.19,0,0,0,.56-.4l1.24,2a3,3,0,0,1-.74.54,4.87,4.87,0,0,1-1.25.44,9.74,9.74,0,0,1-2,.17,5.9,5.9,0,0,1-2.55-.53,4.09,4.09,0,0,1-1.74-1.58,4.82,4.82,0,0,1-.63-2.55,4.73,4.73,0,0,1,.54-2.27,4.1,4.1,0,0,1,1.6-1.6,5,5,0,0,1,2.53-.59,5.45,5.45,0,0,1,2.44.51,3.56,3.56,0,0,1,1.59,1.53,5.22,5.22,0,0,1,.56,2.52v.33a2.28,2.28,0,0,1,0,.35Zm3.27-1.67a1.72,1.72,0,0,0-.18-.68,1.41,1.41,0,0,0-.51-.55,1.59,1.59,0,0,0-.86-.21,1.75,1.75,0,0,0-.89.21,1.56,1.56,0,0,0-.55.53,1.91,1.91,0,0,0-.22.7Z" transform="translate(-72.77 -147.89)"/><path class="cls-1" d="M238.55,299.31a3.84,3.84,0,0,1-2.18-.61,4.17,4.17,0,0,1-1.43-1.65,5.42,5.42,0,0,1,0-4.59,4.17,4.17,0,0,1,1.43-1.65,3.77,3.77,0,0,1,2.18-.62,4,4,0,0,1,1.47.25,4.08,4.08,0,0,1,1,.61,1.58,1.58,0,0,1,.48.65v-7.09h3.19v14.45h-3.16v-1.4a2.49,2.49,0,0,1-.65.77,3.72,3.72,0,0,1-1.06.63A3.39,3.39,0,0,1,238.55,299.31Zm1-2.51a2.11,2.11,0,0,0,1-.26,1.91,1.91,0,0,0,.71-.73,2.2,2.2,0,0,0,0-2.11,1.94,1.94,0,0,0-.71-.74,2.11,2.11,0,0,0-1-.26,2,2,0,0,0-1,.26,1.92,1.92,0,0,0-.7.74,2.27,2.27,0,0,0,0,2.11,1.89,1.89,0,0,0,.7.73A2,2,0,0,0,239.52,296.8Z" transform="translate(-72.77 -147.89)"/><path class="cls-1" d="M251.49,294.43a3,3,0,0,0,.39,1.64,1.42,1.42,0,0,0,1.3.62,1.44,1.44,0,0,0,1.32-.62,3,3,0,0,0,.38-1.64v-4H258v4.32a4.85,4.85,0,0,1-.57,2.41,3.82,3.82,0,0,1-1.65,1.58,5.59,5.59,0,0,1-2.63.56,5.53,5.53,0,0,1-2.61-.56,3.82,3.82,0,0,1-1.65-1.58,4.85,4.85,0,0,1-.57-2.41v-4.32h3.14Z" transform="translate(-72.77 -147.89)"/><path class="cls-1" d="M266.54,296.8a2.13,2.13,0,0,0,1-.2,3.2,3.2,0,0,0,.53-.33l1.46,2.16a3.28,3.28,0,0,1-.58.35,4.58,4.58,0,0,1-1,.37,5.44,5.44,0,0,1-1.4.16,5.83,5.83,0,0,1-2.61-.56,4.21,4.21,0,0,1-1.75-1.59,4.63,4.63,0,0,1-.62-2.42,4.57,4.57,0,0,1,.62-2.41,4.19,4.19,0,0,1,1.75-1.58,5.7,5.7,0,0,1,2.61-.56,5.42,5.42,0,0,1,1.39.16,5.51,5.51,0,0,1,1,.37,2.51,2.51,0,0,1,.59.35L268,293.25a2.14,2.14,0,0,0-.27-.21,2.12,2.12,0,0,0-.5-.24,2.2,2.2,0,0,0-.72-.1,1.82,1.82,0,0,0-1,.26,2,2,0,0,0-.72.72,2.07,2.07,0,0,0-.28,1.06,2.11,2.11,0,0,0,.28,1.07,2,2,0,0,0,.72.73A1.92,1.92,0,0,0,266.54,296.8Z" transform="translate(-72.77 -147.89)"/><path class="cls-1" d="M279.39,299.06v-1.4a2.33,2.33,0,0,1-.48.61,3.49,3.49,0,0,1-1,.72,3.12,3.12,0,0,1-1.47.32,4,4,0,0,1-2.21-.61,4.19,4.19,0,0,1-1.47-1.65,5.32,5.32,0,0,1,0-4.59,4.19,4.19,0,0,1,1.47-1.65,3.89,3.89,0,0,1,2.21-.62,3.42,3.42,0,0,1,2.4.86,2.56,2.56,0,0,1,.53.65v-1.26h3.17v8.62Zm-4-4.31a2.06,2.06,0,0,0,.27,1.06,2,2,0,0,0,.73.73,2,2,0,0,0,1,.26,2,2,0,0,0,1-.26,1.89,1.89,0,0,0,.7-.73,2.27,2.27,0,0,0,0-2.11,1.92,1.92,0,0,0-.7-.74,2,2,0,0,0-1-.26,2,2,0,0,0-1,.26,2,2,0,0,0-.73.74A2.05,2.05,0,0,0,275.36,294.75Z" transform="translate(-72.77 -147.89)"/><path class="cls-1" d="M291.12,296.8a2.13,2.13,0,0,0,1-.2,3.2,3.2,0,0,0,.53-.33l1.46,2.16a3.28,3.28,0,0,1-.58.35,4.58,4.58,0,0,1-1,.37,5.44,5.44,0,0,1-1.4.16,5.83,5.83,0,0,1-2.61-.56,4.21,4.21,0,0,1-1.75-1.59,4.63,4.63,0,0,1-.62-2.42,4.57,4.57,0,0,1,.62-2.41,4.19,4.19,0,0,1,1.75-1.58,5.7,5.7,0,0,1,2.61-.56,5.42,5.42,0,0,1,1.39.16,5.51,5.51,0,0,1,1,.37,2.51,2.51,0,0,1,.59.35l-1.49,2.18a2.14,2.14,0,0,0-.27-.21,2.12,2.12,0,0,0-.5-.24,2.2,2.2,0,0,0-.72-.1,1.82,1.82,0,0,0-1,.26,2,2,0,0,0-.72.72,2.07,2.07,0,0,0-.28,1.06,2.11,2.11,0,0,0,.28,1.07,2,2,0,0,0,.72.73A1.92,1.92,0,0,0,291.12,296.8Z" transform="translate(-72.77 -147.89)"/><path class="cls-1" d="M299,288.67a1.81,1.81,0,0,1-1.8-1.8,1.74,1.74,0,0,1,.53-1.28,1.77,1.77,0,0,1,2.18-.29,1.9,1.9,0,0,1,.66.66,1.66,1.66,0,0,1,.25.91,1.69,1.69,0,0,1-.54,1.26A1.72,1.72,0,0,1,299,288.67Zm-1.63,10.39v-8.62h3.19v8.62Z" transform="translate(-72.77 -147.89)"/><path class="cls-1" d="M309.06,299.31a5.25,5.25,0,0,1-2.51-.58,4.31,4.31,0,0,1-2.35-4,4.52,4.52,0,0,1,.62-2.36,4.38,4.38,0,0,1,1.73-1.63,5.15,5.15,0,0,1,2.51-.6,5.05,5.05,0,0,1,2.5.6,4.28,4.28,0,0,1,1.69,1.63,4.51,4.51,0,0,1,.61,2.36,4.44,4.44,0,0,1-.61,2.34,4.3,4.3,0,0,1-1.69,1.61A5.16,5.16,0,0,1,309.06,299.31Zm-1.38-9.83-.94-1.29,3.41-2.94,1.52,1.9Zm1.38,7.21a1.81,1.81,0,0,0,.95-.24,1.73,1.73,0,0,0,.62-.69,2.26,2.26,0,0,0,.22-1,2.3,2.3,0,0,0-.22-1,1.76,1.76,0,0,0-.62-.7,1.82,1.82,0,0,0-.95-.25,1.84,1.84,0,0,0-.95.25,1.71,1.71,0,0,0-.63.7,2.16,2.16,0,0,0-.22,1,2.14,2.14,0,0,0,.22,1,1.68,1.68,0,0,0,.63.69A1.84,1.84,0,0,0,309.06,296.69Z" transform="translate(-72.77 -147.89)"/><path class="cls-1" d="M323.34,290.19a4.59,4.59,0,0,1,1.77.36,3.37,3.37,0,0,1,1.41,1.16,3.59,3.59,0,0,1,.56,2.09v5.26h-3.2v-4.74a2,2,0,0,0-.44-1.39,1.53,1.53,0,0,0-1.16-.46,1.78,1.78,0,0,0-.89.24,2,2,0,0,0-.67.7,2,2,0,0,0-.26,1v4.63h-3.19v-8.62h3.19v1.27a1.88,1.88,0,0,1,.53-.7,3.56,3.56,0,0,1,1-.59A3.87,3.87,0,0,1,323.34,290.19Z" transform="translate(-72.77 -147.89)"/><path class="cls-1" d="M337.51,290.44h3.41l2.08,5.72,2.09-5.72h3.39l-3.61,8.62h-3.74Z" transform="translate(-72.77 -147.89)"/><path class="cls-1" d="M353.4,288.67a1.81,1.81,0,0,1-1.8-1.8,1.74,1.74,0,0,1,.53-1.28,1.77,1.77,0,0,1,2.18-.29,1.9,1.9,0,0,1,.66.66,1.75,1.75,0,0,1,.25.91,1.69,1.69,0,0,1-.54,1.26A1.72,1.72,0,0,1,353.4,288.67Zm-1.63,10.39v-8.62H355v8.62Z" transform="translate(-72.77 -147.89)"/><path class="cls-1" d="M362,299.06h-3.19v-8.62H362v1.33h-.05a1.94,1.94,0,0,1,.41-.61,2.91,2.91,0,0,1,.91-.67,3.13,3.13,0,0,1,1.44-.3,3.47,3.47,0,0,1,1.84.53l-1.24,2.6a1.7,1.7,0,0,0-.52-.38,2,2,0,0,0-.93-.19,1.66,1.66,0,0,0-1.05.32,1.86,1.86,0,0,0-.61.79,2.27,2.27,0,0,0-.2.87Z" transform="translate(-72.77 -147.89)"/><path class="cls-1" d="M368.53,290.44H370V286.9h3.16v3.54h1.94v2.62h-1.94v2.41a2.06,2.06,0,0,0,.16.86.58.58,0,0,0,.58.34.9.9,0,0,0,.48-.13,1.15,1.15,0,0,0,.24-.17l1.09,2.27a2.3,2.3,0,0,1-.45.23,5.94,5.94,0,0,1-1,.3,5.4,5.4,0,0,1-1.32.14,3.11,3.11,0,0,1-2.13-.73,2.82,2.82,0,0,1-.84-2.25v-3.27h-1.47Z" transform="translate(-72.77 -147.89)"/><path class="cls-1" d="M381.82,294.43a3,3,0,0,0,.39,1.64,1.68,1.68,0,0,0,2.61,0,3,3,0,0,0,.39-1.64v-4h3.15v4.32a4.85,4.85,0,0,1-.57,2.41,3.9,3.9,0,0,1-1.66,1.58,6.41,6.41,0,0,1-5.24,0,3.82,3.82,0,0,1-1.65-1.58,5,5,0,0,1-.56-2.41v-4.32h3.14Z" transform="translate(-72.77 -147.89)"/><path class="cls-1" d="M398.88,299.06v-1.4a2.33,2.33,0,0,1-.48.61,3.63,3.63,0,0,1-1,.72,3.12,3.12,0,0,1-1.47.32,4,4,0,0,1-2.21-.61,4.19,4.19,0,0,1-1.47-1.65,5.32,5.32,0,0,1,0-4.59,4.19,4.19,0,0,1,1.47-1.65,3.89,3.89,0,0,1,2.21-.62,3.42,3.42,0,0,1,2.4.86,2.56,2.56,0,0,1,.53.65v-1.26H402v8.62Zm-4-4.31a2.06,2.06,0,0,0,.27,1.06,2,2,0,0,0,.73.73,2,2,0,0,0,1,.26,2,2,0,0,0,1-.26,1.89,1.89,0,0,0,.7-.73,2.27,2.27,0,0,0,0-2.11,1.92,1.92,0,0,0-.7-.74,2,2,0,0,0-1-.26,2,2,0,0,0-1,.26,2,2,0,0,0-.73.74A2.05,2.05,0,0,0,394.85,294.75Z" transform="translate(-72.77 -147.89)"/><path class="cls-1" d="M409.13,299.06h-3.21V284.61h3.21Z" transform="translate(-72.77 -147.89)"/></svg>