<?xml version="1.0" encoding="utf-8"?>
<!-- Generator: Adobe Illustrator 26.0.0, SVG Export Plug-In . SVG Version: 6.00 Build 0)  -->
<svg version="1.1" id="Layer_1" xmlns="http://www.w3.org/2000/svg" xmlns:xlink="http://www.w3.org/1999/xlink" x="0px" y="0px"
	 viewBox="0 0 250 286" style="enable-background:new 0 0 250 286;" xml:space="preserve">
<style type="text/css">
	.st0{fill:none;stroke:#000000;stroke-width:5;stroke-linecap:round;stroke-linejoin:round;}
	.st1{opacity:0.7;stroke:#000000;stroke-width:0.75;stroke-linecap:round;stroke-linejoin:round;enable-background:new    ;}
</style>
<path class="st0" d="M167.8,9.2c-3.7,0.8-7.3,2-10.8,3.5c-7.6,3.2-15.1,7.9-19.1,15.1c-4.7,8.4-4,19.3,0.8,27.8s13,14.6,22,18.1
	s18.8,4.6,28.5,4.8c10.9,0.2,21.7-0.8,32.4-2.9c3.9-0.6,7.7-1.8,11.2-3.6c8-4.4,12.8-13.1,12.2-22.2c-0.6-8-5.2-15.1-9.9-21.6
	c-3.6-5-7.4-10.2-13-13c-4.4-2.2-8.9-1.4-13.5-2.5C195,9.7,181.7,6.1,167.8,9.2z"/>
<path class="st0" d="M203,66.7c1.6,18.6-1.4,37.3-9,54.3"/>
<path class="st0" d="M145.1,117.9c23.4,1.6,46.8,4.4,69.9,8.4c0.5,2-0.6,4-1.8,5.8c-13.1,19.6-30.2,36-47.2,52.3
	c-1.1,1.2-2.5,2.2-4,2.9c-1.4,0.5-3,0.7-4.5,0.6c-16.2,0.1-32.4-2.2-48.4-4.5l-36.3-5.2c-2.5-0.4-5.1-0.7-7.2-2.1s-3.7-3.9-3.1-6.4
	c0.6-1.6,1.6-3,2.9-4l28-26.1"/>
<path class="st0" d="M140.3,81.3c-2.1,1.4-3.9,3-5.6,4.8c-1.7,1.8-2.6,4.2-2.6,6.7c3.3,1.2,7,0.4,10.5,0.5c4.4,0.1,8.6,1.8,13,2.4
	c5.2,0.8,10.4,0.2,15.6-0.4"/>
<path class="st0" d="M168.6,63.7c-0.1,9.9-1.2,19.8-3.2,29.6"/>
<path class="st0" d="M214.6,128.8c0.6,6.8,1.1,13.9-1.4,20.2c-1.4,3.1-3.2,6.1-5.3,8.7l-15.4,21.1c-2.8,4.1-5.9,7.8-9.3,11.3
	c-3.2,2.9-6.6,5.5-10.3,7.8c-2.9,2-5.9,4-9.3,4.9c-2.8,0.7-5.6,1-8.5,0.9c-26.6,0.2-53.2-3-79.1-9.5c-3.6-0.9-7.4-2-9.9-4.8
	c-3.4-3.8-3.4-9.4-3.2-14.5"/>
<path class="st0" d="M63.4,167c0-4.3-2.2-8.2-4.2-12c-4.3-8-7.9-16.3-10.8-24.8"/>
<path class="st0" d="M64.9,188.9c-5,4-7,10.5-8.4,16.7c-4.9,21.2-6.1,43.2-3.3,64.8"/>
<path class="st0" d="M190.2,181.5c-7.4,10.7-14.8,21.9-17.5,34.7c-0.9,4.8-1.4,9.7-1.5,14.6c-0.7,17-0.4,34,0.9,51"/>
<path class="st0" d="M207.1,160.4c4.5-2.4,10.3-4.8,14.4-1.7c1.3,1.1,2.3,2.4,3.1,3.9c5.4,9.8,6.4,21.3,7.4,32.4l1.8,21.1
	c0.2,2.2,0.4,4.6-0.6,6.7"/>
<path class="st1" d="M111.9,142.4c-1.2,1.1-3.8,1.5-5.4,1.5c-1.1,0-2.1-0.3-3.1-0.7c-6.3-2.2-13-3.3-19.6-4.4l-65.7-10.6
	c-3.4-0.5-6.8-1.1-9.6-2.8s-4.8-4.9-3.9-7.8c0.6-1.5,1.6-2.9,2.9-3.9c5.1-4.6,11.4-7.9,17.7-11.1c12.6-6.5,25.2-13,38.5-18.4
	c4.5-1.6,8.8-3.8,12.7-6.5c4.2-2.6,9.8-5,14.8-5c1.9,0,14.5,1.3,16.3,1.8c12,3.4,17.4,2.9,29.4,6.2c-4,2.7-6.7,6.9-7.7,11.6
	c5.3,0.4,33.7,2.1,41.6,3.1c2.5,0.3-8.8,9.4-10.9,10.7c-3.2,2.1-6.4,4.2-9.5,6.4c-6.5,4.4-11.6,9.2-17.8,13.8
	C125.6,131.5,117.9,137.1,111.9,142.4z"/>
</svg>
