<svg id="Layer_1" data-name="Layer 1" xmlns="http://www.w3.org/2000/svg" viewBox="0 0 314.74 132.4"><defs><style>.cls-1{opacity:0.4;}.cls-2{fill:#231f20;}.cls-3{fill:#fff;}</style></defs><g class="cls-1"><path class="cls-2" d="M135.18,271.78v-6.19a11.42,11.42,0,0,1-2.12,2.7,16.62,16.62,0,0,1-4.49,3.19,14.17,14.17,0,0,1-6.52,1.42,17.57,17.57,0,0,1-9.78-2.72,18.59,18.59,0,0,1-6.52-7.31,23.4,23.4,0,0,1,0-20.36,18.71,18.71,0,0,1,6.52-7.33,17.43,17.43,0,0,1,9.78-2.75,16.12,16.12,0,0,1,6.29,1.14,14.69,14.69,0,0,1,4.37,2.7,10.57,10.57,0,0,1,2.33,2.87v-5.59h14.07v38.23Zm-9.59,20.45a45.87,45.87,0,0,1-7.94-.7,27.34,27.34,0,0,1-7.34-2.38,16.58,16.58,0,0,1-5.73-4.61l8.29-8.61a17.62,17.62,0,0,0,2.64,2.47,13.46,13.46,0,0,0,3.86,2,17.36,17.36,0,0,0,5.61.79,12.56,12.56,0,0,0,5.36-1.07A8.26,8.26,0,0,0,133.9,277a9.27,9.27,0,0,0,1.28-5v-.94h13.93v1.77A17.65,17.65,0,0,1,146,283.52a19.19,19.19,0,0,1-8.45,6.52A31,31,0,0,1,125.59,292.23Zm-8.29-39.54a9.07,9.07,0,0,0,1.21,4.68,8.76,8.76,0,0,0,3.24,3.24,8.89,8.89,0,0,0,4.49,1.16,8.74,8.74,0,0,0,4.52-1.16,8.45,8.45,0,0,0,3.09-3.24,10.18,10.18,0,0,0,0-9.36,8.37,8.37,0,0,0-7.61-4.45,8.71,8.71,0,0,0-4.49,1.19,8.89,8.89,0,0,0-3.24,3.26A9.07,9.07,0,0,0,117.3,252.69Z" transform="translate(-100.63 -159.83)"/><path class="cls-2" d="M171.13,271.78H157V233.55h14.16v5.91h-.23a9.3,9.3,0,0,1,1.81-2.72,13.41,13.41,0,0,1,4.06-3,13.84,13.84,0,0,1,6.38-1.33,14,14,0,0,1,4.89.82,13.81,13.81,0,0,1,3.26,1.56l-5.5,11.5a7.36,7.36,0,0,0-2.3-1.65,8.83,8.83,0,0,0-4.13-.87,7.38,7.38,0,0,0-4.68,1.45,8.78,8.78,0,0,0-2.7,3.49,10.11,10.11,0,0,0-.86,3.87Z" transform="translate(-100.63 -159.83)"/><path class="cls-2" d="M224.78,271.78v-6.19a11.7,11.7,0,0,1-2.12,2.7,16.62,16.62,0,0,1-4.49,3.19,14.2,14.2,0,0,1-6.52,1.42,17.57,17.57,0,0,1-9.78-2.72,18.59,18.59,0,0,1-6.52-7.31,23.4,23.4,0,0,1,0-20.36,18.71,18.71,0,0,1,6.52-7.33,17.43,17.43,0,0,1,9.78-2.75,16,16,0,0,1,6.28,1.14,14.88,14.88,0,0,1,4.38,2.7,10.57,10.57,0,0,1,2.33,2.87v-5.59H238.7v38.23ZM206.9,252.69a9.07,9.07,0,0,0,1.21,4.68,8.73,8.73,0,0,0,3.23,3.24,8.92,8.92,0,0,0,4.5,1.16,8.74,8.74,0,0,0,4.52-1.16,8.45,8.45,0,0,0,3.09-3.24,10.18,10.18,0,0,0,0-9.36,8.37,8.37,0,0,0-7.61-4.45,8.75,8.75,0,0,0-4.5,1.19,8.86,8.86,0,0,0-3.23,3.26A9.07,9.07,0,0,0,206.9,252.69Z" transform="translate(-100.63 -159.83)"/><path class="cls-2" d="M264.09,272.9a17.09,17.09,0,0,1-9.65-2.72,18.33,18.33,0,0,1-6.35-7.31,24.06,24.06,0,0,1,0-20.36,18.46,18.46,0,0,1,6.35-7.33,17,17,0,0,1,9.65-2.75,17.35,17.35,0,0,1,6.51,1.14,16,16,0,0,1,4.62,2.7,6.7,6.7,0,0,1,2.14,2.87V207.7h14.15v64.08h-14v-6.19a11.6,11.6,0,0,1-2.89,3.42,17.08,17.08,0,0,1-4.7,2.8A15.41,15.41,0,0,1,264.09,272.9Zm4.33-11.13a9.09,9.09,0,0,0,4.58-1.16,8.42,8.42,0,0,0,3.19-3.24,9.94,9.94,0,0,0,0-9.36,8.54,8.54,0,0,0-3.19-3.26,8.91,8.91,0,0,0-4.58-1.19,8.45,8.45,0,0,0-7.57,4.45,10.18,10.18,0,0,0,0,9.36,8.38,8.38,0,0,0,3.12,3.24A8.66,8.66,0,0,0,268.42,261.77Z" transform="translate(-100.63 -159.83)"/><path class="cls-2" d="M319,259.54l10.34-26H343.2l-26.26,57.61H302.78l8.85-19.38-16-38.23h14.11Z" transform="translate(-100.63 -159.83)"/><path class="cls-2" d="M357.13,272.9a8.5,8.5,0,0,1-8.43-8.43,8.21,8.21,0,0,1,2.49-6,8.41,8.41,0,0,1,11.95,0,8.26,8.26,0,0,1,2.46,6,8.45,8.45,0,0,1-8.47,8.43Z" transform="translate(-100.63 -159.83)"/><path class="cls-2" d="M388.39,179.77l-.15.3-.45.87-.71,1.38-.93,1.84L385,186.39,383.69,189l-1.46,2.85-1.58,3.09L379,198.15l-1.73,3.37L375.51,205l-1.75,3.42L372,211.74,370.37,215l-1.59,3.09L367.32,221,366,223.54l-1.15,2.25-1,1.85-.71,1.4a10.86,10.86,0,0,0-.89,1.81,3.79,3.79,0,0,0-.11,1.5c.14,1.73.34,3.46.41,5.2l.3,4c.1,1.29.19,2.57.28,3.86.08,1,.15,1.95.22,2.93l.09,1.28s.11,1.32,1.13,1.6a2.93,2.93,0,0,0,1.1-.1,3.62,3.62,0,0,0,.74-.42l1.67-1,4.94-3.08,5.12-3.22c1.08-.68,2.25-1.25,3.26-2a7.2,7.2,0,0,0,1.72-2.61l.58-1.14c.52-1,1-2,1.55-3l2-3.88,2.31-4.51c.84-1.65,1.69-3.3,2.53-5l2.65-5.19,2.67-5.24c.87-1.69,1.73-3.39,2.59-5.08l2.4-4.71,2.12-4.15,1.72-3.38c.41-.81.82-1.62,1.24-2.42l.63-1.25.07-.13Z" transform="translate(-100.63 -159.83)"/><path class="cls-2" d="M391.21,174c.92-1.8,1.76-3.65,2.71-5.43a23,23,0,0,1,1.51-2.59,7.41,7.41,0,0,1,2.07-1.87,8.58,8.58,0,0,1,4.51-1.34,9.93,9.93,0,0,1,4.48,1.37c1.18.59,2.36,1.18,3.53,1.79a11.48,11.48,0,0,1,3.16,2.06,8,8,0,0,1,2.16,4.73,10,10,0,0,1-1.18,5.11c-1,2.14-2.05,4.22-3.1,6.32Z" transform="translate(-100.63 -159.83)"/></g><path class="cls-3" d="M132.39,268.85v-6.2a11.21,11.21,0,0,1-2.12,2.71,16.62,16.62,0,0,1-4.49,3.19,14.3,14.3,0,0,1-6.52,1.42,17.5,17.5,0,0,1-9.78-2.73,18.53,18.53,0,0,1-6.52-7.31,23.38,23.38,0,0,1,0-20.35,18.82,18.82,0,0,1,6.52-7.34,17.42,17.42,0,0,1,9.78-2.74,16.12,16.12,0,0,1,6.29,1.14,14.69,14.69,0,0,1,4.37,2.7,10.55,10.55,0,0,1,2.33,2.86v-5.59h14.07v38.24Zm-9.59,20.44a44.9,44.9,0,0,1-7.94-.7,27,27,0,0,1-7.34-2.37,16.68,16.68,0,0,1-5.72-4.61l8.28-8.62a18.12,18.12,0,0,0,2.64,2.47,13,13,0,0,0,3.86,2,17.34,17.34,0,0,0,5.61.8,12.42,12.42,0,0,0,5.36-1.08,8.14,8.14,0,0,0,3.56-3.12,9.22,9.22,0,0,0,1.28-5v-.93h13.93v1.77a17.62,17.62,0,0,1-3.15,10.66,19.19,19.19,0,0,1-8.45,6.52A31,31,0,0,1,122.8,289.29Zm-8.29-39.54a9.13,9.13,0,0,0,1.21,4.69A9.09,9.09,0,0,0,128,257.67a8.35,8.35,0,0,0,3.09-3.23,10.12,10.12,0,0,0,0-9.37,8.65,8.65,0,0,0-3.09-3.26,8.56,8.56,0,0,0-4.52-1.18,8.71,8.71,0,0,0-4.49,1.18,9,9,0,0,0-4.45,7.94Z" transform="translate(-100.63 -159.83)"/><path class="cls-3" d="M168.34,268.85H154.19V230.61h14.15v5.92h-.23a9.19,9.19,0,0,1,1.82-2.73,13.39,13.39,0,0,1,4-3,14,14,0,0,1,6.38-1.32,14.25,14.25,0,0,1,4.89.81,14.65,14.65,0,0,1,3.26,1.56l-5.5,11.5a7.7,7.7,0,0,0-2.3-1.65,9,9,0,0,0-4.13-.86,7.38,7.38,0,0,0-4.68,1.44,8.81,8.81,0,0,0-2.7,3.5,10,10,0,0,0-.86,3.86Z" transform="translate(-100.63 -159.83)"/><path class="cls-3" d="M222,268.85v-6.2a11.48,11.48,0,0,1-2.12,2.71,16.62,16.62,0,0,1-4.49,3.19,14.33,14.33,0,0,1-6.52,1.42,17.5,17.5,0,0,1-9.78-2.73,18.45,18.45,0,0,1-6.52-7.31,23.38,23.38,0,0,1,0-20.35,18.74,18.74,0,0,1,6.52-7.34,17.42,17.42,0,0,1,9.78-2.74,16,16,0,0,1,6.28,1.14,14.88,14.88,0,0,1,4.38,2.7,10.55,10.55,0,0,1,2.33,2.86v-5.59h14.07v38.24Zm-17.88-19.1a9.13,9.13,0,0,0,1.21,4.69,8.63,8.63,0,0,0,3.23,3.23,8.86,8.86,0,0,0,4.5,1.17,8.65,8.65,0,0,0,4.52-1.17,8.35,8.35,0,0,0,3.09-3.23,10.2,10.2,0,0,0,0-9.37,8.65,8.65,0,0,0-3.09-3.26,8.56,8.56,0,0,0-4.52-1.18,8.77,8.77,0,0,0-4.5,1.18,8.94,8.94,0,0,0-3.23,3.26A9.12,9.12,0,0,0,204.11,249.75Z" transform="translate(-100.63 -159.83)"/><path class="cls-3" d="M261.3,270a17,17,0,0,1-9.64-2.73,18.15,18.15,0,0,1-6.36-7.31,24,24,0,0,1,0-20.35,18.44,18.44,0,0,1,6.36-7.34,16.89,16.89,0,0,1,9.64-2.74,17.44,17.44,0,0,1,6.52,1.14,15.89,15.89,0,0,1,4.61,2.7,6.6,6.6,0,0,1,2.14,2.86V204.77h14.15v64.08h-14v-6.2a11.75,11.75,0,0,1-2.89,3.43,17.15,17.15,0,0,1-4.7,2.79A15.34,15.34,0,0,1,261.3,270Zm4.33-11.13a9,9,0,0,0,4.58-1.17,8.32,8.32,0,0,0,3.19-3.23,10,10,0,0,0,0-9.37,8.61,8.61,0,0,0-3.19-3.26,8.9,8.9,0,0,0-4.58-1.18,8.49,8.49,0,0,0-4.45,1.18,8.58,8.58,0,0,0-3.12,3.26,10.2,10.2,0,0,0,0,9.37,8.29,8.29,0,0,0,3.12,3.23A8.57,8.57,0,0,0,265.63,258.84Z" transform="translate(-100.63 -159.83)"/><path class="cls-3" d="M316.2,256.6l10.34-26h13.88l-26.27,57.61H300l8.85-19.37-16-38.24H307Z" transform="translate(-100.63 -159.83)"/><path class="cls-3" d="M354.34,270a8.52,8.52,0,0,1-8.43-8.43,8.21,8.21,0,0,1,2.49-6,8.39,8.39,0,0,1,12,0,8.27,8.27,0,0,1,2.47,6,8.48,8.48,0,0,1-8.48,8.43Z" transform="translate(-100.63 -159.83)"/><path class="cls-3" d="M385.6,176.83l-.15.31L385,178l-.71,1.38-.93,1.83-1.14,2.23L380.9,186l-1.46,2.86L377.86,192l-1.66,3.26-1.73,3.36L372.72,202,371,205.44l-1.73,3.37-1.66,3.26L366,215.16,364.53,218l-1.32,2.59-1.15,2.24-.95,1.85-.71,1.4a11.35,11.35,0,0,0-.89,1.82,3.75,3.75,0,0,0-.11,1.49c.14,1.73.34,3.47.42,5.2.09,1.35.19,2.69.29,4s.19,2.57.28,3.85c.08,1,.15,2,.22,2.93l.09,1.28s.12,1.32,1.13,1.6a2.81,2.81,0,0,0,1.1-.09,4.62,4.62,0,0,0,.75-.42l1.66-1,4.94-3.07,5.12-3.23c1.08-.68,2.25-1.25,3.26-2a7.12,7.12,0,0,0,1.72-2.61l.58-1.13c.52-1,1-2,1.55-3l2-3.87,2.31-4.52,2.53-4.95,2.65-5.2,2.67-5.24q1.31-2.53,2.59-5.07l2.4-4.72,2.12-4.15,1.72-3.38,1.24-2.42.63-1.25.07-.13Z" transform="translate(-100.63 -159.83)"/><path class="cls-3" d="M388.42,171.06c.92-1.8,1.76-3.64,2.71-5.43a23.81,23.81,0,0,1,1.51-2.58,7.26,7.26,0,0,1,2.07-1.87,8.59,8.59,0,0,1,4.51-1.35,10,10,0,0,1,4.48,1.38c1.18.59,2.36,1.18,3.53,1.79a11.23,11.23,0,0,1,3.16,2.05,8.05,8.05,0,0,1,2.16,4.74,9.88,9.88,0,0,1-1.18,5.1c-1,2.14-2.05,4.22-3.1,6.32Z" transform="translate(-100.63 -159.83)"/></svg>